
<svg width="130" height="22" viewBox="0 0 130 22" fill="none" xmlns="http://www.w3.org/2000/svg">
<path d="M25.34 19.7723L25.3393 2.22457L30.1402 1.49982L32.9203 1.49999L32.9201 4.56505L28.4829 4.56477L28.4825 9.50752L32.92 7.27113L32.9197 10.6952L28.4823 12.9592L28.4823 20.3962L25.34 19.7723Z" fill="white"/>
<path d="M34.4913 4.12334C34.4914 2.43894 35.4286 1.50015 37.0271 1.50025L40.5273 1.50048C42.1258 1.50058 43.0904 2.43948 43.0902 4.12388L43.0902 4.59331L39.9206 6.24989L39.9207 4.53788L37.6332 4.53773L37.6329 9.37003L43.0901 6.55384L43.0894 18.0409C43.0893 19.7253 42.1246 20.6641 40.5261 20.664L37.0259 20.6638C35.4273 20.6637 34.4903 19.7248 34.4904 18.0404L34.4906 16.2455L37.6326 14.6165L37.6324 17.6264L39.9199 17.6265L39.9203 11.6068L34.4907 14.4506L34.4913 4.12334Z" fill="white"/>
<path d="M53.9095 1.50132L53.9085 17.5998L56.196 17.5999L56.197 1.50147L59.3665 1.50167L59.3654 17.9867C59.3653 19.8092 58.4833 20.6651 56.6092 20.665L54.1563 20.6648C53.0263 20.6648 52.3649 20.002 52.365 18.8147C52.3649 20.002 51.6759 20.6647 50.5459 20.6646L47.9 20.6644C46.3015 20.6643 45.3645 19.7254 45.3646 18.041L45.3657 1.50078L48.5076 1.50098L48.5066 17.5994L50.8217 17.5996L50.8227 1.50113L53.9095 1.50132Z" fill="white"/>
<path d="M72.6796 8.32296L72.6798 4.45712L70.1442 4.45696L70.1439 9.56539L72.6796 8.32296ZM75.7111 10.477L75.7106 18.0154C75.7105 19.8102 74.801 20.6662 72.8993 20.666L67.1115 20.6657L67.1128 1.50216L73.1485 1.50255C74.7471 1.50265 75.7116 2.44155 75.7115 4.12595L75.7113 8.15747C75.7112 9.40006 75.3253 10.1456 74.3607 10.4769L75.7111 10.477ZM72.679 17.6838L72.6794 11.5261L70.1437 12.7961L70.1434 17.6836L72.679 17.6838Z" fill="white"/>
<path d="M86.584 20.6669L83.4421 20.6667L83.4426 12.5484L81.1274 13.7357L81.127 20.6666L77.9851 20.6664L77.9861 4.1261C77.9862 2.4417 78.9234 1.50291 80.5219 1.50301L84.0221 1.50324C85.6206 1.50334 86.5852 2.44224 86.5851 4.12664L86.584 20.6669ZM83.4428 9.17965L83.4431 4.54064L81.128 4.54049L81.1277 10.3116L83.4428 9.17965Z" fill="white"/>
<path d="M94.3702 9.23556L94.3705 4.54133L92.0554 4.54119L92.055 10.3952L94.3702 9.23556ZM97.512 11.003L95.1968 12.1902L98.7792 20.6677L95.4995 20.6675L92.5234 13.5707L92.0548 13.8192L92.0544 20.6672L88.9125 20.6671L88.9137 1.50355L94.9495 1.50393C96.548 1.50403 97.5125 2.44294 97.5124 4.12734L97.512 11.003Z" fill="white"/>
<path d="M105.327 8.32503L105.327 4.45919L102.792 4.45903L102.791 9.56746L105.327 8.32503ZM108.359 10.479L108.358 18.0174C108.358 19.8123 107.449 20.6682 105.547 20.6681L99.7591 20.6677L99.7603 1.50423L105.796 1.50462C107.395 1.50472 108.359 2.44363 108.359 4.12803L108.359 8.15954C108.359 9.40213 107.973 10.1477 107.008 10.479L108.359 10.479ZM105.327 17.6859L105.327 11.5281L102.791 12.7982L102.791 17.6857L105.327 17.6859Z" fill="white"/>
<path d="M118.212 20.6689L110.633 20.6684L110.634 1.50492L118.213 1.50541L118.213 4.57046L113.776 4.57018L113.775 9.51293L118.213 7.27655L118.212 10.7006L113.775 12.9646L113.775 17.6036L118.212 17.6039L118.212 20.6689Z" fill="white"/>
<path d="M125.591 9.23755L125.592 4.54332L123.276 4.54317L123.276 10.3972L125.591 9.23755ZM128.733 11.005L126.418 12.1922L130 20.6697L126.721 20.6694L123.744 13.5727L123.276 13.8212L123.275 20.6692L120.134 20.669L120.135 1.50553L126.171 1.50591C127.769 1.50601 128.734 2.44492 128.733 4.12932L128.733 11.005Z" fill="white"/>
<path d="M25.34 19.7723L25.3393 2.22457L30.1402 1.49982L32.9203 1.49999L32.9201 4.56505L28.4829 4.56477L28.4825 9.50752L32.92 7.27113L32.9197 10.6952L28.4823 12.9592L28.4823 20.3962L25.34 19.7723Z" fill="#8162FF"/>
<path d="M34.4913 4.12334C34.4914 2.43894 35.4286 1.50015 37.0271 1.50025L40.5273 1.50048C42.1258 1.50058 43.0904 2.43948 43.0902 4.12388L43.0902 4.59331L39.9206 6.24989L39.9207 4.53788L37.6332 4.53773L37.6329 9.37003L43.0901 6.55384L43.0894 18.0409C43.0893 19.7253 42.1246 20.6641 40.5261 20.664L37.0259 20.6638C35.4273 20.6637 34.4903 19.7248 34.4904 18.0404L34.4906 16.2455L37.6326 14.6165L37.6324 17.6264L39.9199 17.6265L39.9203 11.6068L34.4907 14.4506L34.4913 4.12334Z" fill="#8162FF"/>
<path d="M53.9095 1.50132L53.9085 17.5998L56.196 17.5999L56.197 1.50147L59.3665 1.50167L59.3654 17.9867C59.3653 19.8092 58.4833 20.6651 56.6092 20.665L54.1563 20.6648C53.0263 20.6648 52.3649 20.002 52.365 18.8147C52.3649 20.002 51.6759 20.6647 50.5459 20.6646L47.9 20.6644C46.3015 20.6643 45.3645 19.7254 45.3646 18.041L45.3657 1.50078L48.5076 1.50098L48.5066 17.5994L50.8217 17.5996L50.8227 1.50113L53.9095 1.50132Z" fill="#8162FF"/>
<path fill-rule="evenodd" clip-rule="evenodd" d="M1.81656 4.93437C1.8165 5.76294 2.14596 6.5576 2.73244 7.14353C3.31892 7.72945 4.11439 8.05865 4.94385 8.05871C5.77331 8.05876 6.56882 7.72966 7.15537 7.14381C7.74193 6.55796 8.07148 5.76334 8.07153 4.93477C8.07159 4.10619 7.74213 3.31153 7.15565 2.72561C6.56917 2.13968 5.77371 1.81048 4.94424 1.81043C4.11478 1.81037 3.31927 2.13947 2.73272 2.72533C2.14616 3.31118 1.81661 4.1058 1.81656 4.93437ZM4.94373 9.87272C3.88532 9.87254 2.8549 9.53302 2.00409 8.90411C1.15328 8.27521 0.526999 7.39013 0.217387 6.37909C-0.0922245 5.36806 -0.0688178 4.28445 0.284164 3.28769C0.637145 2.29094 1.30106 1.43367 2.17824 0.842011C3.05541 0.250354 4.09953 -0.0444521 5.15697 0.000968161C6.21441 0.0463884 7.22934 0.429636 8.05243 1.09433C8.87553 1.75902 9.46333 2.67005 9.72936 3.69339C9.99538 4.71674 9.92559 5.79835 9.53024 6.77911L11.4753 8.07726C11.461 8.12271 11.4475 8.1684 11.4349 8.21432L11.1241 9.32286L10.4118 9.7985L8.40625 8.46003C7.51436 9.33271 6.29158 9.87281 4.94373 9.87272ZM1.81579 17.058C1.81584 16.2295 2.14539 15.4349 2.73195 14.849C3.3185 14.2632 4.11401 13.9341 4.94347 13.9341C5.77294 13.9342 6.5684 14.2634 7.15488 14.8493C7.74137 15.4352 8.07082 16.2299 8.07076 17.0584C8.07071 17.887 7.74116 18.6816 7.1546 19.2675C6.56805 19.8533 5.77254 20.1824 4.94308 20.1824C4.11362 20.1823 3.31815 19.8531 2.73167 19.2672C2.14519 18.6813 1.81574 17.8866 1.81579 17.058ZM4.94359 12.1201C3.8861 12.1201 2.8565 12.4589 2.00601 13.0867C1.15552 13.7145 0.528973 14.5982 0.218393 15.6079C-0.0921863 16.6177 -0.0704276 17.7003 0.280474 18.6969C0.631375 19.6934 1.29292 20.5512 2.16795 21.1444C3.04298 21.7375 4.08536 22.0348 5.142 21.9924C6.19864 21.9501 7.21384 21.5704 8.03848 20.9091C8.86313 20.2478 9.45375 19.3398 9.72361 18.3184C9.99347 17.297 9.92833 16.2161 9.53777 15.2344L30.1659 1.49665L28.2471 1.65469C25.5411 1.93895 22.9206 2.767 20.5432 4.08902L14.3385 7.53525C14.1054 7.66526 13.9006 7.84016 13.7357 8.04981C13.5708 8.25946 13.4492 8.49971 13.3779 8.75663L12.8673 10.5827L8.42207 13.5514C7.49772 12.6335 6.24695 12.1188 4.94359 12.1201ZM14.3138 14.4688L14.338 14.4829L20.5423 17.93C22.9195 19.2523 25.5399 20.0807 28.2459 20.3653L27.9688 19.0032L25.3467 17.3581L17.6755 12.2217L14.3138 14.4688Z" fill="#8162FF"/>
</svg>
